<svg xmlns="http://www.w3.org/2000/svg" width="120" height="120" viewBox="0 0 120 120">
  <path fill="#FF4757" d="M10.23 109.85 c-0.04 -0.11 0.26 -1.22 0.67 -2.48 1.52 -4.79 2.59 -8.16 3.57 -11.27 1.35 -4.30 2.61 -8.29 5.50 -17.34 2.65 -8.36 4.35 -13.71 4.93 -15.59 1.29 -4.13 2.34 -7.49 2.70 -8.55 0.22 -0.68 1.75 -5.53 3.40 -10.78 1.65 -5.25 3.45 -10.95 3.98 -12.66 0.54 -1.71 1.49 -4.73 2.11 -6.74 0.63 -2 1.55 -4.92 2.04 -6.50 l0.90 -2.87 19.95 -0.04 c19.08 -0.02 19.95 -0.01 20.05 0.19 0.06 0.12 0.67 2 1.36 4.18 0.69 2.19 1.54 4.89 1.88 5.98 0.35 1.10 0.95 3 1.32 4.22 0.39 1.23 1.48 4.68 2.43 7.68 0.95 3 2.03 6.42 2.40 7.62 0.36 1.20 0.97 3.12 1.34 4.28 0.38 1.16 2.44 7.70 4.61 14.53 2.16 6.83 4.31 13.64 4.78 15.12 0.47 1.49 1.31 4.13 1.85 5.86 1.41 4.48 4.44 14.05 5.96 18.81 2.20 6.89 2.04 6.33 1.84 6.46 -0.09 0.06 -6.20 0.11 -14.95 0.11 l-14.79 0 -0.23 -0.79 c-0.13 -0.45 -0.63 -2.32 -1.11 -4.20 -0.48 -1.86 -1.30 -5.03 -1.83 -7.03 -0.53 -1.99 -1.39 -5.32 -1.93 -7.38 -1.27 -4.84 -2.04 -7.80 -2.12 -8.05 -0.11 -0.36 -0.45 -0.23 -1.29 0.48 -0.45 0.38 -1.95 1.65 -3.33 2.84 -1.38 1.18 -2.74 2.34 -3.01 2.57 -0.94 0.80 -3.52 3.01 -6.29 5.39 -1.54 1.32 -3.02 2.59 -3.29 2.81 -1.28 1.05 -2.92 2.45 -7.09 6.04 -2.47 2.12 -4.88 4.18 -5.33 4.56 -0.45 0.39 -1.07 0.91 -1.36 1.17 -0.29 0.27 -0.83 0.73 -1.21 1.04 l-0.68 0.55 -14.81 0 c-13.46 0 -14.82 -0.01 -14.89 -0.19z m61.91 -30.01 c-0.04 -0.12 -0.35 -1.35 -0.71 -2.73 -2.40 -9.21 -11.17 -42.08 -11.25 -42.18 -0.19 -0.19 -0.42 0.34 -0.87 1.99 -1.97 7.31 -3.82 14.25 -5.21 19.50 -0.54 2.06 -2.16 8.13 -3.57 13.48 -1.43 5.36 -2.59 9.82 -2.59 9.94 0 0.19 0.71 0.20 12.14 0.20 11.50 0 12.13 -0.01 12.07 -0.20z"/>
</svg>
